<svg width="135" height="125" viewBox="0 0 135 125" fill="none" xmlns="http://www.w3.org/2000/svg">
<g filter="url(#filter0_d)">
<circle cx="57.5" cy="57.5" r="57.5" fill="url(#paint0_linear)"/>
</g>
<path d="M58 80.667C60.2091 80.667 62 78.8761 62 76.667C62 74.4579 60.2091 72.667 58 72.667C55.7909 72.667 54 74.4579 54 76.667C54 78.8761 55.7909 80.667 58 80.667Z" fill="white"/>
<path d="M62 66.0003C62 67.0612 61.5786 68.0786 60.8284 68.8288C60.0783 69.5789 59.0609 70.0003 58 70.0003C56.9391 70.0003 55.9217 69.5789 55.1716 68.8288C54.4214 68.0786 54 67.0612 54 66.0003V40.667C54 39.6061 54.4214 38.5887 55.1716 37.8386C55.9217 37.0884 56.9391 36.667 58 36.667C59.0609 36.667 60.0783 37.0884 60.8284 37.8386C61.5786 38.5887 62 39.6061 62 40.667V66.0003Z" fill="white"/>
<defs>
<filter id="filter0_d" x="-20" y="-10" width="155" height="155" filterUnits="userSpaceOnUse" color-interpolation-filters="sRGB">
<feFlood flood-opacity="0" result="BackgroundImageFix"/>
<feColorMatrix in="SourceAlpha" type="matrix" values="0 0 0 0 0 0 0 0 0 0 0 0 0 0 0 0 0 0 127 0"/>
<feOffset dy="10"/>
<feGaussianBlur stdDeviation="10"/>
<feColorMatrix type="matrix" values="0 0 0 0 0.521569 0 0 0 0 0.788235 0 0 0 0 0.964706 0 0 0 0.2 0"/>
<feBlend mode="normal" in2="BackgroundImageFix" result="effect1_dropShadow"/>
<feBlend mode="normal" in="SourceGraphic" in2="effect1_dropShadow" result="shape"/>
</filter>
<linearGradient id="paint0_linear" x1="57.5" y1="0" x2="115" y2="103.705" gradientUnits="userSpaceOnUse">
<stop stop-color="#007BC2"/>
<stop offset="1" stop-color="#9CD7FF"/>
</linearGradient>
</defs>
</svg>
