<svg width="46" height="46" viewBox="0 0 46 46" fill="none" xmlns="http://www.w3.org/2000/svg">
<g clip-path="url(#clip0)">
<path d="M31.8224 22.7125L27.0671 10.7142L23.0575 17.7292L19.0478 10.7142L14.2926 22.7163H12.9183V24.5199H20.079V22.7163H19.0191L20.0502 19.7359L23.0575 24.6617L26.0647 19.7359L27.0959 22.7163H26.036V24.5199H33.2254V22.7163L31.8224 22.7125ZM42.0478 19.0478C42.0491 16.5461 41.5572 14.0686 40.6004 11.7571C39.6437 9.4455 38.2406 7.34518 36.4716 5.57617C34.7026 3.80717 32.6023 2.40416 30.2908 1.44737C27.9792 0.49057 25.5017 -0.00125722 23 2.41343e-06C12.489 2.41343e-06 3.95215 8.53492 3.95215 19.0478C3.95215 24.3187 6.10073 29.072 9.53731 32.5086C9.75251 32.7257 10.0274 32.8739 10.3271 32.9343C10.6267 32.9947 10.9376 32.9647 11.2201 32.848C11.5026 32.7313 11.744 32.5332 11.9137 32.2789C12.0833 32.0246 12.1735 31.7256 12.1727 31.4199C12.1734 31.0022 12.0087 30.6011 11.7146 30.3044C8.73765 27.3153 7.0693 23.2665 7.07631 19.0478C7.07631 10.2542 14.2063 3.0935 23 3.0935C31.7936 3.0935 38.9543 10.2542 38.9543 19.0478C38.959 21.1439 38.5489 23.2202 37.7476 25.1571C36.9462 27.0939 35.7696 28.8531 34.2853 30.3332L20.8226 43.7939L23 46L36.4914 32.5086C38.2591 30.7419 39.6601 28.6431 40.6136 26.333C41.5672 24.0229 42.0546 21.547 42.0478 19.0478Z" fill="black"/>
</g>
<defs>
<clipPath id="clip0">
<rect width="46" height="46" fill="white"/>
</clipPath>
</defs>
</svg>
