<svg width="62" height="62" viewBox="0 0 62 62" fill="none" xmlns="http://www.w3.org/2000/svg">
<path d="M58.1805 1.68303C57.207 0.791218 56.0171 0.233834 54.719 0.0666184C43.9019 -1.32684 35.8973 19.5751 34.9778 22.0276C34.5452 21.9161 34.0584 21.8046 33.6257 21.8046C32.7062 21.8046 31.895 22.0275 31.1378 22.4735C26.5405 21.6374 25.6211 18.1816 25.6211 18.1816C27.1895 19.798 31.0296 20.3554 31.0296 20.3554C30.1642 15.8963 28.6498 12.7192 26.865 10.4897C23.6199 6.36506 18.1573 4.80438 13.2355 6.4208C3.06742 9.7651 0.633573 15.2832 0.0927179 18.2931C-0.123624 19.5751 0.0386325 20.9685 0.579487 22.1948C4.90632 32.1162 25.1343 28.8276 28.7039 28.1588C29.0284 29.7752 30.1642 31.1686 31.5705 31.7818C32.2736 35.8507 29.9479 37.913 29.9479 37.913C30.651 35.7392 29.5152 31.949 29.5152 31.949C25.9456 34.6802 23.8362 37.4671 22.6464 40.0311C20.4289 44.8246 21.4024 50.5656 24.9179 54.4673C32.2195 62.5494 38.1148 62.4379 40.9813 61.6576C42.2253 61.3231 43.3611 60.5985 44.1724 59.5395C51.1494 51.0673 38.9261 33.0638 37.1953 30.6113C38.0607 29.6637 38.6016 28.3817 38.6016 26.9883C38.6016 26.8768 38.6016 26.7096 38.6016 26.5981C41.6303 23.2538 44.8755 24.2013 44.8755 24.2013C42.7121 24.7587 40.2782 27.8243 40.2782 27.8243C44.4428 29.4408 47.8502 29.7194 50.6085 29.3293C55.6926 28.6047 59.8571 24.6473 61.047 19.4636C63.6431 8.76181 60.3439 3.74535 58.1805 1.68303ZM33.6257 30.1096C32.0031 30.1096 30.651 28.7162 30.651 27.044C30.651 25.3719 32.0031 23.9784 33.6257 23.9784C35.2483 23.9784 36.6004 25.3719 36.6004 27.044C36.6004 28.7162 35.2483 30.1096 33.6257 30.1096Z" fill="#090909"/>
</svg>
