<svg width="27" height="27" viewBox="0 0 27 27" fill="none" xmlns="http://www.w3.org/2000/svg">
<path d="M24.4687 6.70519C23.6619 7.05323 22.7838 7.30372 21.8794 7.40128C22.8184 6.84345 23.5216 5.96216 23.857 4.92276C22.9759 5.44692 22.0106 5.81446 21.0041 6.00909C20.5834 5.55934 20.0745 5.20104 19.5093 4.95653C18.9441 4.71203 18.3345 4.58654 17.7187 4.5879C15.227 4.5879 13.2231 6.60763 13.2231 9.08614C13.2231 9.43419 13.2653 9.78224 13.3338 10.1171C9.60288 9.92198 6.27534 8.13956 4.06314 5.41056C3.66005 6.09905 3.44882 6.88297 3.45142 7.68077C3.45142 9.24171 4.24507 10.6181 5.45532 11.4276C4.7421 11.3995 4.04558 11.2034 3.42241 10.8554V10.9108C3.42241 13.0966 4.96753 14.908 7.02681 15.3246C6.64016 15.4251 6.2424 15.4764 5.84292 15.4776C5.55024 15.4776 5.27339 15.4485 4.9939 15.409C5.56343 17.1914 7.22192 18.486 9.19683 18.5282C7.65171 19.7385 5.71636 20.4504 3.61489 20.4504C3.23784 20.4504 2.88979 20.4372 2.52856 20.395C4.52192 21.6738 6.88706 22.4121 9.43413 22.4121C17.7029 22.4121 22.2275 15.5619 22.2275 9.61612C22.2275 9.42101 22.2275 9.22589 22.2143 9.03077C23.0897 8.39005 23.857 7.5964 24.4687 6.70519Z" fill="white"/>
</svg>
