<svg width="27" height="27" viewBox="0 0 27 27" fill="none" xmlns="http://www.w3.org/2000/svg">
<path d="M24.2764 7.71193C24.4339 7.1888 24.2764 6.80518 23.5316 6.80518H21.0645C20.4368 6.80518 20.1499 7.13705 19.9924 7.50155C19.9924 7.50155 18.738 10.5604 16.9605 12.5438C16.3868 13.1209 16.1246 13.3032 15.8119 13.3032C15.6555 13.3032 15.4282 13.1209 15.4282 12.5978V7.71193C15.4282 7.08418 15.2471 6.80518 14.724 6.80518H10.8472C10.4558 6.80518 10.2195 7.09543 10.2195 7.37218C10.2195 7.96618 11.1082 8.10343 11.1994 9.77743V13.4089C11.1994 14.2043 11.0565 14.3494 10.7415 14.3494C9.90563 14.3494 7.87162 11.2793 6.6645 7.7648C6.42937 7.08193 6.192 6.8063 5.562 6.8063H3.096C2.39063 6.8063 2.25 7.13818 2.25 7.50268C2.25 8.15743 3.08588 11.3974 6.14363 15.6826C8.18213 18.6087 11.052 20.1949 13.6665 20.1949C15.2336 20.1949 15.4271 19.8428 15.4271 19.2353V17.0236C15.4271 16.3193 15.5767 16.1776 16.0729 16.1776C16.4374 16.1776 17.0651 16.3621 18.5287 17.7717C20.2005 19.4434 20.4773 20.1938 21.4166 20.1938H23.8826C24.5869 20.1938 24.939 19.8417 24.7365 19.1464C24.5149 18.4546 23.7161 17.4477 22.6564 16.2563C22.0804 15.5768 21.2197 14.8456 20.9576 14.4799C20.592 14.0086 20.6978 13.8004 20.9576 13.3819C20.9587 13.3831 23.9636 9.1508 24.2764 7.71193Z" fill="white"/>
</svg>
