<svg width="52" height="52" viewBox="0 0 52 52" fill="none" xmlns="http://www.w3.org/2000/svg">
<path d="M26.0002 4.33301C14.0402 4.33301 4.3335 14.0397 4.3335 25.9997C4.3335 37.9597 14.0402 47.6663 26.0002 47.6663H36.8335V43.333H26.0002C16.5968 43.333 8.66683 35.403 8.66683 25.9997C8.66683 16.5963 16.5968 8.66634 26.0002 8.66634C35.4035 8.66634 43.3335 16.5963 43.3335 25.9997V29.098C43.3335 30.8097 41.7952 32.4997 40.0835 32.4997C38.3718 32.4997 36.8335 30.8097 36.8335 29.098V25.9997C36.8335 20.0197 31.9802 15.1663 26.0002 15.1663C20.0202 15.1663 15.1668 20.0197 15.1668 25.9997C15.1668 31.9797 20.0202 36.833 26.0002 36.833C28.9902 36.833 31.7202 35.6197 33.6702 33.648C35.0785 35.5763 37.5052 36.833 40.0835 36.833C44.3518 36.833 47.6668 33.3663 47.6668 29.098V25.9997C47.6668 14.0397 37.9602 4.33301 26.0002 4.33301ZM26.0002 32.4997C22.4035 32.4997 19.5002 29.5963 19.5002 25.9997C19.5002 22.403 22.4035 19.4997 26.0002 19.4997C29.5968 19.4997 32.5002 22.403 32.5002 25.9997C32.5002 29.5963 29.5968 32.4997 26.0002 32.4997Z" fill="black" fill-opacity="0.9"/>
</svg>
