<svg width="52" height="52" viewBox="0 0 52 52" fill="none" xmlns="http://www.w3.org/2000/svg">
<path d="M8.645 33.3233C11.31 33.3233 13.8883 32.89 16.2933 32.11C17.0517 31.85 17.8967 32.045 18.4817 32.63L21.8833 36.8983C28.015 33.9733 33.7567 28.4483 36.8117 22.1L32.5867 18.5033C32.0017 17.8967 31.8283 17.0517 32.0667 16.2933C32.8683 13.8883 33.28 11.31 33.28 8.645C33.28 7.475 34.255 6.5 35.425 6.5H42.9217C44.0917 6.5 45.5 7.02 45.5 8.645C45.5 28.7733 28.7517 45.5 8.645 45.5C7.10667 45.5 6.5 44.135 6.5 42.9433V35.4683C6.5 34.2983 7.475 33.3233 8.645 33.3233Z" fill="black"/>
</svg>
