<svg width="52" height="52" viewBox="0 0 52 52" fill="none" xmlns="http://www.w3.org/2000/svg">
<path d="M25.9785 4.33301C14.0185 4.33301 4.3335 14.0397 4.3335 25.9997C4.3335 37.9597 14.0185 47.6663 25.9785 47.6663C37.9602 47.6663 47.6668 37.9597 47.6668 25.9997C47.6668 14.0397 37.9602 4.33301 25.9785 4.33301ZM26.0002 43.333C16.4235 43.333 8.66683 35.5763 8.66683 25.9997C8.66683 16.423 16.4235 8.66634 26.0002 8.66634C35.5768 8.66634 43.3335 16.423 43.3335 25.9997C43.3335 35.5763 35.5768 43.333 26.0002 43.333Z" fill="black"/>
<path d="M27.0835 15.167H23.8335V28.167L35.2085 34.992L36.8335 32.327L27.0835 26.542V15.167Z" fill="black"/>
</svg>
