<svg width="220" height="119" viewBox="0 0 220 119" fill="none" xmlns="http://www.w3.org/2000/svg">
<g clip-path="url(#clip0)">
<path d="M6.58683 111.127H9.6269C10.5389 111.127 11.0963 111.426 11.2483 111.974V112.123V112.173C11.2483 112.522 10.9443 113.17 10.3362 114.166C9.22156 116.11 8.56287 117.206 8.41087 117.405C7.54952 118.452 6.53616 118.95 5.32013 118.95H1.77338C1.06403 118.95 0.608015 118.751 0.405343 118.302C0.354675 118.203 0.354675 118.103 0.354675 118.003V117.904C0.354675 117.505 0.658683 116.857 1.31737 115.861C2.33072 114.116 2.93874 113.07 3.19208 112.771C4.15477 111.725 5.26946 111.127 6.58683 111.127ZM3.39475 116.608C3.39475 116.807 3.54675 116.957 3.80009 117.057H5.57347C6.28282 117.057 6.9415 116.459 7.49885 115.263C8.0562 114.366 8.3602 113.817 8.3602 113.618C8.3602 113.369 8.10686 113.219 7.60018 113.219H6.58683C5.57347 113.219 4.81345 113.817 4.2561 115.013C3.64809 115.811 3.39475 116.359 3.39475 116.608Z" fill="url(#paint0_linear)"/>
<path d="M17.4804 111.176C17.3284 111.525 16.3657 113.219 14.5923 116.259L14.5417 116.558C14.5417 116.807 14.7443 116.957 15.1497 117.007H16.6697C17.4297 117.007 18.0884 116.409 18.6458 115.163L20.9765 111.126H23.1552C21.6858 113.718 20.5205 115.811 19.5578 117.306C19.0004 117.904 18.5951 118.253 18.1898 118.352C17.4804 118.701 16.8217 118.851 16.2137 118.851H12.9203C11.9576 118.851 11.4509 118.552 11.4509 117.954V117.854C11.4509 117.505 11.7549 116.807 12.4136 115.811L15.2004 111.077H17.4804V111.176Z" fill="url(#paint1_linear)"/>
<path d="M33.1368 111.126H35.2142V111.176L31.9208 113.17H29.7927C27.5633 117.057 26.4486 119 26.398 119H24.1686L27.5633 113.17H24.3206V113.12L27.6647 111.126H33.1368Z" fill="url(#paint2_linear)"/>
<path d="M43.2704 111.126C44.3344 111.126 44.9424 111.425 45.0944 112.023V112.223V112.322C45.0944 112.572 44.8918 113.02 44.4864 113.668C43.9797 114.565 43.6757 115.013 43.4731 115.013C43.4224 115.063 43.1184 115.113 42.6117 115.113C42.9664 115.113 43.169 115.263 43.2197 115.562V115.661C43.2197 115.811 42.9157 116.409 42.3077 117.356C41.5983 118.452 40.433 119 38.8116 119H36.8862H33.3395L37.8996 111.176H43.2704V111.126ZM38.0516 111.126H43.5744C44.2837 111.126 44.7904 111.376 45.0438 111.924L45.0944 112.223C45.0944 112.472 44.7904 113.07 44.2331 113.967C43.9291 114.665 43.4731 115.013 42.865 115.013H42.6117H42.561V115.063C43.017 115.113 43.2197 115.312 43.2197 115.562C43.2197 115.711 42.9157 116.309 42.257 117.306C41.497 118.352 40.4836 118.9 39.217 118.9H39.0649H33.4408L38.0009 111.126H38.0516ZM36.7849 117.007H39.3183C40.0276 117.007 40.5343 116.658 40.889 115.91H37.4436C37.3929 115.861 37.1902 116.259 36.7849 117.007ZM37.4436 115.861L36.8356 116.957H39.3183C40.0276 116.957 40.585 116.558 40.9397 115.811H37.4436V115.861ZM39.0143 113.12C38.6089 113.817 38.4063 114.216 38.4063 114.266H40.2303H41.8517C42.105 113.917 42.257 113.668 42.257 113.518V113.419C42.257 113.17 41.953 113.02 41.3957 113.02H41.2943L39.0143 113.12ZM39.7236 113.12H39.0649L38.4569 114.266H39.4703H41.9023C42.1557 113.867 42.3077 113.618 42.3077 113.469C42.2064 113.219 41.953 113.07 41.5477 113.07L39.7236 113.12Z" fill="url(#paint3_linear)"/>
<path d="M51.4786 111.126H54.468C55.38 111.126 55.9373 111.425 56.0893 111.974V112.123V112.173C56.0893 112.522 55.7853 113.17 55.1773 114.166C54.0626 116.11 53.4039 117.206 53.2519 117.405C52.3906 118.452 51.3772 118.95 50.1612 118.95H46.6144C45.9051 118.95 45.4491 118.751 45.2464 118.302C45.1957 118.203 45.1957 118.103 45.1957 118.003V117.904C45.1957 117.505 45.4997 116.857 46.1584 115.861C47.1718 114.116 47.7798 113.07 48.0331 112.771C48.9958 111.724 50.1612 111.126 51.4786 111.126ZM48.2358 116.608C48.2358 116.807 48.3878 116.957 48.6412 117.057H50.4145C51.1239 117.057 51.7826 116.459 52.3399 115.263C52.8973 114.366 53.2013 113.817 53.2013 113.618C53.2013 113.369 52.9479 113.219 52.4413 113.219H51.4279C50.4145 113.219 49.6545 113.817 49.0972 115.013C48.5398 115.811 48.2358 116.359 48.2358 116.608Z" fill="url(#paint4_linear)"/>
<path d="M65.8176 111.126C66.6789 111.126 67.2363 111.376 67.4896 111.874L67.5403 112.173V112.223C67.5403 112.572 67.2363 113.219 66.6283 114.216C64.8042 117.306 63.8922 118.9 63.8415 118.95H61.6121L62.6762 117.007H59.2814C59.2308 117.057 58.8254 117.704 58.1667 118.95H55.8867C58.1161 115.113 59.2814 113.07 59.4841 112.771C60.0921 112.123 60.5988 111.724 60.9535 111.575C61.4095 111.326 61.9162 111.176 62.4228 111.126H65.8176ZM62.6255 111.176H65.9696C66.7296 111.176 67.2363 111.475 67.4896 112.023V112.223C67.4896 112.572 67.0843 113.369 66.3243 114.615C65.5642 115.96 64.7029 117.405 63.7402 119H63.6389H61.5615L61.5108 118.95L62.5748 117.106V117.057H59.1294C59.0787 117.106 58.6734 117.754 58.0147 119H57.9134H55.836C58.0147 115.213 59.2308 113.17 59.4334 112.92C60.3455 111.724 61.4601 111.176 62.6255 111.176ZM60.3454 115.113H63.3855C63.7402 115.113 63.8922 115.063 63.8922 114.964C64.3989 114.216 64.6522 113.768 64.6522 113.618V113.419C64.5509 113.219 64.3482 113.12 63.9429 113.12H62.5748C61.6628 113.12 60.9028 113.817 60.3454 115.113ZM60.3961 115.113H63.8415C64.3989 114.216 64.7029 113.718 64.7029 113.618V113.518C64.7029 113.269 64.4496 113.12 63.8922 113.12H62.7775C61.8655 113.12 61.2068 113.618 60.7001 114.565C60.4975 114.914 60.3961 115.063 60.3961 115.113Z" fill="url(#paint5_linear)"/>
<path d="M71.5937 111.126H77.1672C77.9272 111.126 78.4339 111.376 78.6872 111.924C78.7379 111.974 78.7379 112.073 78.7379 112.223C78.7379 112.572 78.4339 113.269 77.7752 114.266C77.3192 115.213 76.8125 115.761 76.3058 115.91L75.6472 116.01C76.0525 116.01 76.2552 116.16 76.3058 116.409V116.459C76.3058 116.608 76.0018 117.206 75.3938 118.253C75.1405 118.701 74.9885 118.9 74.9885 118.9H72.7591V118.851L73.8231 116.907H70.4284C69.719 118.203 69.3137 118.851 69.263 118.9H67.0843C69.9724 113.917 71.4924 111.326 71.5937 111.126ZM71.5937 115.063H73.9245C74.7858 115.063 75.3432 114.764 75.5458 114.116C75.6978 113.817 75.7992 113.568 75.7992 113.419C75.7992 113.219 75.5458 113.07 75.0392 113.07H72.7591L71.5937 115.063Z" fill="url(#paint6_linear)"/>
<path d="M88.3648 111.176C89.4288 111.276 89.9355 111.575 89.9355 112.173V112.273C89.9355 112.572 89.6821 113.12 89.2261 113.917C87.9594 116.11 87.2501 117.306 87.0474 117.605C86.2367 118.552 85.1727 119 83.8047 119H78.2819C78.3325 118.851 79.0419 117.555 80.4606 115.163L82.7913 111.176H88.3648ZM81.6766 117.057H81.7779H84.3113C84.666 117.057 85.0207 116.807 85.4767 116.359C85.882 115.761 86.3887 114.914 86.9967 113.768V113.568C86.9461 113.369 86.7941 113.219 86.4901 113.219H83.906C83.754 113.469 82.994 114.764 81.6766 117.057Z" fill="url(#paint7_linear)"/>
<path d="M110.152 111.226C110.861 111.226 111.317 111.475 111.52 111.924L111.571 112.223C111.571 112.621 111.165 113.419 110.405 114.665C109.341 116.608 108.531 118.053 107.923 119H106.403H105.693C107.72 115.462 108.733 113.668 108.733 113.618V113.568C108.733 113.369 108.581 113.269 108.227 113.269H105.896C103.717 117.057 102.602 118.95 102.501 119.05H100.322C100.373 118.95 101.082 117.655 102.552 115.213L103.667 113.269H100.626C100.576 113.319 99.7144 114.814 97.9917 117.804C97.5357 118.601 97.2824 119 97.2317 119.05H95.205H95.053L99.5624 111.276H110.152V111.226Z" fill="url(#paint8_linear)"/>
<path d="M117.955 111.126H120.944C121.856 111.126 122.414 111.425 122.566 111.974V112.123V112.173C122.566 112.522 122.262 113.17 121.654 114.166C120.539 116.11 119.88 117.206 119.728 117.405C118.867 118.452 117.854 118.95 116.638 118.95H113.091C112.381 118.95 111.925 118.751 111.723 118.302C111.672 118.203 111.672 118.103 111.672 118.003V117.904C111.672 117.505 111.976 116.857 112.635 115.861C113.648 114.116 114.256 113.07 114.509 112.771C115.472 111.724 116.587 111.126 117.955 111.126ZM114.712 116.608C114.712 116.807 114.864 116.957 115.117 117.057H116.891C117.6 117.057 118.259 116.459 118.816 115.263C119.374 114.366 119.678 113.817 119.678 113.618C119.678 113.369 119.424 113.219 118.918 113.219H117.904C116.891 113.219 116.131 113.817 115.573 115.013C114.965 115.811 114.712 116.359 114.712 116.608Z" fill="url(#paint9_linear)"/>
<path d="M133.257 111.126H135.334V111.176L132.041 113.17H129.912C127.683 117.057 126.568 119 126.518 119H124.288L127.683 113.12H124.44V113.07L127.784 111.077H133.257V111.126Z" fill="url(#paint10_linear)"/>
<path d="M140.35 111.126H143.339C144.251 111.126 144.809 111.425 144.961 111.974V112.123V112.173C144.961 112.522 144.657 113.17 144.049 114.166C142.934 116.11 142.275 117.206 142.123 117.405C141.262 118.452 140.249 118.95 139.033 118.95H135.486C134.777 118.95 134.321 118.751 134.118 118.302C134.067 118.203 134.067 118.103 134.067 118.003V117.904C134.067 117.505 134.371 116.857 135.03 115.861C136.043 114.116 136.651 113.07 136.905 112.771C137.918 111.724 139.033 111.126 140.35 111.126ZM137.158 116.608C137.158 116.807 137.31 116.957 137.563 117.057H139.337C140.046 117.057 140.705 116.459 141.262 115.263C141.819 114.366 142.123 113.817 142.123 113.618C142.123 113.369 141.87 113.219 141.363 113.219H140.35C139.337 113.219 138.577 113.817 138.019 115.013C137.411 115.811 137.158 116.359 137.158 116.608Z" fill="url(#paint11_linear)"/>
<path d="M149.268 111.126H154.841C155.601 111.126 156.108 111.376 156.361 111.924C156.412 111.974 156.412 112.073 156.412 112.223C156.412 112.572 156.108 113.269 155.449 114.266C154.993 115.213 154.486 115.761 153.98 115.91L153.321 116.01C153.726 116.01 153.929 116.16 153.98 116.409V116.459C153.98 116.608 153.676 117.206 153.068 118.253C152.814 118.701 152.662 118.9 152.662 118.9H150.433V118.851L151.497 116.907H148.052C147.342 118.203 146.937 118.851 146.886 118.9H144.708C147.596 113.917 149.116 111.326 149.268 111.126ZM149.268 115.063H151.598C152.46 115.063 153.017 114.764 153.22 114.116C153.372 113.817 153.473 113.568 153.473 113.419C153.473 113.219 153.22 113.07 152.713 113.07H150.433L149.268 115.063Z" fill="url(#paint12_linear)"/>
<path d="M166.089 111.126H171.561C172.372 111.126 172.879 111.376 173.132 111.924C173.183 111.974 173.183 112.073 173.183 112.223C173.183 112.572 172.879 113.269 172.22 114.316C171.916 114.964 171.511 115.512 171.004 116.01C170.193 116.658 169.332 117.007 168.471 117.007H164.975L163.759 119H161.529C164.113 114.465 165.633 111.824 166.089 111.126ZM167.153 113.12L166.039 115.063H168.42C169.231 115.063 169.788 114.714 170.092 114.067C170.244 113.817 170.295 113.668 170.295 113.568C170.295 113.269 169.991 113.12 169.332 113.12H167.153Z" fill="url(#paint13_linear)"/>
<path d="M182.708 111.126C183.57 111.126 184.127 111.376 184.38 111.874L184.431 112.173V112.223C184.431 112.572 184.127 113.219 183.519 114.216C181.695 117.306 180.783 118.9 180.732 118.95H178.503L179.567 117.007H176.122C176.071 117.057 175.666 117.704 175.007 118.95H172.727C174.956 115.113 176.122 113.07 176.324 112.771C176.932 112.123 177.439 111.724 177.794 111.575C178.25 111.326 178.756 111.176 179.263 111.126H182.708ZM179.466 111.176H182.81C183.57 111.176 184.076 111.475 184.33 112.023V112.223C184.33 112.572 183.924 113.369 183.164 114.615C182.404 115.96 181.543 117.405 180.58 119H180.479H178.402L178.351 118.95L179.415 117.106V117.057H175.97C175.919 117.106 175.514 117.754 174.855 119H174.754H172.676C174.855 115.213 176.071 113.17 176.274 112.92C177.236 111.724 178.3 111.176 179.466 111.176ZM177.186 115.113H180.226C180.58 115.113 180.732 115.063 180.732 114.964C181.239 114.216 181.492 113.768 181.492 113.618V113.419C181.391 113.219 181.188 113.12 180.783 113.12H179.415C178.503 113.12 177.743 113.817 177.186 115.113ZM177.236 115.113H180.682C181.239 114.216 181.543 113.718 181.543 113.618V113.518C181.543 113.269 181.29 113.12 180.732 113.12H179.618C178.706 113.12 178.047 113.618 177.54 114.565C177.338 114.914 177.236 115.063 177.236 115.113Z" fill="url(#paint14_linear)"/>
<path d="M188.434 111.126H194.007C194.767 111.126 195.274 111.376 195.527 111.924C195.578 111.974 195.578 112.073 195.578 112.223C195.578 112.572 195.274 113.269 194.615 114.266C194.159 115.213 193.653 115.761 193.146 115.91L192.487 116.01C192.893 116.01 193.095 116.16 193.146 116.409V116.459C193.146 116.608 192.842 117.206 192.234 118.253C191.981 118.701 191.829 118.9 191.829 118.9H189.599V118.851L190.663 116.907H187.218C186.509 118.203 186.103 118.851 186.053 118.9H183.874C186.813 113.917 188.333 111.326 188.434 111.126ZM188.434 115.063H190.765C191.626 115.063 192.183 114.764 192.386 114.116C192.538 113.817 192.639 113.568 192.639 113.419C192.639 113.219 192.386 113.07 191.879 113.07H189.599L188.434 115.063Z" fill="url(#paint15_linear)"/>
<path d="M206.066 111.126H208.144V111.176L204.85 113.17H202.722C200.493 117.057 199.378 119 199.327 119H197.098L200.493 113.17H197.25V113.12L200.594 111.126H206.066Z" fill="url(#paint16_linear)"/>
<path d="M213.109 111.176H219.696V111.226L216.605 113.12H213.16C212.45 113.12 211.842 113.518 211.285 114.316V114.366H213.21H214.477C215.44 114.366 215.997 114.515 216.2 114.864C216.251 114.964 216.301 115.113 216.301 115.312C216.301 115.611 215.947 116.309 215.187 117.405C214.579 118.103 213.971 118.552 213.362 118.751C212.805 118.95 212.298 119.05 211.842 119.05H208.346H206.37V119L209.664 117.057H211.792C212.754 117.057 213.413 116.658 213.818 115.91H210.272C209.562 115.91 209.106 115.761 208.904 115.412L208.802 115.063C208.802 114.615 209.309 113.718 210.322 112.422C211.133 111.575 212.045 111.176 213.109 111.176Z" fill="url(#paint17_linear)"/>
<path d="M43.017 82.0741C41.193 86.2102 36.5822 88.951 31.4648 88.951H14.5924L23.6619 83.4694H30.8061C31.4141 83.4694 32.0221 83.2701 32.4781 82.9711C32.9341 82.6721 33.2888 82.2236 33.4915 81.7253C33.9982 80.1805 32.6808 78.6855 30.8061 78.6855L17.9364 78.6357L8.91755 99.1666H0L9.22156 78.1872L4.76278 72.6059H35.3662C41.0917 72.6059 45.0438 77.4895 43.017 82.0741Z" fill="url(#paint18_linear)"/>
<path d="M75.1911 92.4891V92.6386L72.3031 99.2663H40.8383C40.8383 99.1667 46.9691 85.7617 50.5666 77.9879L46.2598 72.5561H61.7135L53.0493 92.4891H75.1911Z" fill="url(#paint19_linear)"/>
<path d="M121.806 72.6059L109.747 99.3161H101.133L105.44 89.549L94.0396 99.0171L90.9489 89.549L86.6421 99.1666H78.0286L87.3008 78.1872L82.7913 72.6059H98.3464L99.2584 86.858L113.141 72.6059H121.806Z" fill="url(#paint20_linear)"/>
<path d="M156.716 78.1872L135.587 92.5389H156.108L153.321 99.1168H119.424L121.603 92.6386L143.086 78.1872H128.392L124.238 72.6059H131.027C131.027 72.5561 159.655 72.6059 159.655 72.6059L156.716 78.1872Z" fill="url(#paint21_linear)"/>
<path d="M178.402 72.6059L166.748 99.1168H157.881C158.388 98.1202 161.529 91.044 167.204 78.1872L162.745 72.6059H178.402Z" fill="url(#paint22_linear)"/>
<path d="M219.443 82.0741C217.619 86.2102 213.008 88.951 207.89 88.951H191.018L200.088 83.4694H207.232C207.84 83.4694 208.448 83.2701 208.904 82.9711C209.36 82.6721 209.714 82.2236 209.917 81.7253C210.424 80.1805 209.106 78.6855 207.232 78.6855L194.362 78.6357L185.394 99.1666H176.476L185.698 78.1872L181.239 72.6059H211.792C217.517 72.6059 221.469 77.4895 219.443 82.0741Z" fill="url(#paint23_linear)"/>
<path d="M161.479 30.2483L178.199 13.0063C178.199 13.0063 111.317 9.36852 63.7402 41.2613C63.7402 41.2613 116.688 -0.348817 189.853 8.52137L158.945 37.9724C118.918 22.8731 57.1534 56.1114 57.1534 56.1114C57.1534 56.1114 41.041 52.374 37.5956 25.0159L44.3344 19.6838L63.7402 24.1688L66.1216 33.9858L60.9028 26.8597L46.5638 24.2186L43.8784 26.5607C43.8784 26.5607 41.0917 41.9091 56.6467 52.2245C56.596 52.1746 124.136 20.6307 161.479 30.2483Z" fill="url(#paint24_linear)"/>
<path d="M131.331 7.27554L120.742 4.43509C104.933 12.209 77.6232 30.348 77.6232 30.348C106.605 6.47822 121.502 -0.0498352 121.502 -0.0498352L144.657 6.77722C144.657 6.77722 130.318 8.92001 120.995 12.6076L131.331 7.27554Z" fill="url(#paint25_linear)"/>
<path d="M102.197 25.5641C102.197 25.5641 135.587 14.6009 166.697 17.4414L162.745 23.2718L172.778 15.0494C172.778 15.0494 142.022 12.1591 102.197 25.5641Z" fill="url(#paint26_linear)"/>
<path d="M49.6545 41.4606C49.6545 41.4606 45.4998 37.0255 46.6145 28.5042L48.1345 27.0092L58.6734 28.853H49.6545L48.5399 29.9493C48.4892 29.9493 46.2598 34.0356 49.6545 41.4606Z" fill="url(#paint27_linear)"/>
</g>
<defs>
<linearGradient id="paint0_linear" x1="5.90022" y1="109.507" x2="5.71594" y2="126.742" gradientUnits="userSpaceOnUse">
<stop stop-color="#31B7E8"/>
<stop offset="1" stop-color="#000F55"/>
</linearGradient>
<linearGradient id="paint1_linear" x1="17.4508" y1="109.63" x2="17.2665" y2="126.866" gradientUnits="userSpaceOnUse">
<stop stop-color="#31B7E8"/>
<stop offset="1" stop-color="#000F55"/>
</linearGradient>
<linearGradient id="paint2_linear" x1="29.7604" y1="109.762" x2="29.5762" y2="126.997" gradientUnits="userSpaceOnUse">
<stop stop-color="#31B7E8"/>
<stop offset="1" stop-color="#000F55"/>
</linearGradient>
<linearGradient id="paint3_linear" x1="39.3185" y1="109.864" x2="39.1342" y2="127.1" gradientUnits="userSpaceOnUse">
<stop stop-color="#31B7E8"/>
<stop offset="1" stop-color="#000F55"/>
</linearGradient>
<linearGradient id="paint4_linear" x1="50.772" y1="109.986" x2="50.5878" y2="127.222" gradientUnits="userSpaceOnUse">
<stop stop-color="#31B7E8"/>
<stop offset="1" stop-color="#000F55"/>
</linearGradient>
<linearGradient id="paint5_linear" x1="61.7545" y1="110.104" x2="61.5702" y2="127.339" gradientUnits="userSpaceOnUse">
<stop stop-color="#31B7E8"/>
<stop offset="1" stop-color="#000F55"/>
</linearGradient>
<linearGradient id="paint6_linear" x1="72.9481" y1="110.223" x2="72.7639" y2="127.459" gradientUnits="userSpaceOnUse">
<stop stop-color="#31B7E8"/>
<stop offset="1" stop-color="#000F55"/>
</linearGradient>
<linearGradient id="paint7_linear" x1="84.1664" y1="110.343" x2="83.9821" y2="127.579" gradientUnits="userSpaceOnUse">
<stop stop-color="#31B7E8"/>
<stop offset="1" stop-color="#000F55"/>
</linearGradient>
<linearGradient id="paint8_linear" x1="103.361" y1="110.548" x2="103.176" y2="127.784" gradientUnits="userSpaceOnUse">
<stop stop-color="#31B7E8"/>
<stop offset="1" stop-color="#000F55"/>
</linearGradient>
<linearGradient id="paint9_linear" x1="117.211" y1="110.697" x2="117.026" y2="127.932" gradientUnits="userSpaceOnUse">
<stop stop-color="#31B7E8"/>
<stop offset="1" stop-color="#000F55"/>
</linearGradient>
<linearGradient id="paint10_linear" x1="129.853" y1="110.832" x2="129.669" y2="128.067" gradientUnits="userSpaceOnUse">
<stop stop-color="#31B7E8"/>
<stop offset="1" stop-color="#000F55"/>
</linearGradient>
<linearGradient id="paint11_linear" x1="139.646" y1="110.936" x2="139.462" y2="128.172" gradientUnits="userSpaceOnUse">
<stop stop-color="#31B7E8"/>
<stop offset="1" stop-color="#000F55"/>
</linearGradient>
<linearGradient id="paint12_linear" x1="150.605" y1="111.054" x2="150.42" y2="128.289" gradientUnits="userSpaceOnUse">
<stop stop-color="#31B7E8"/>
<stop offset="1" stop-color="#000F55"/>
</linearGradient>
<linearGradient id="paint13_linear" x1="167.361" y1="111.233" x2="167.176" y2="128.468" gradientUnits="userSpaceOnUse">
<stop stop-color="#31B7E8"/>
<stop offset="1" stop-color="#000F55"/>
</linearGradient>
<linearGradient id="paint14_linear" x1="178.603" y1="111.353" x2="178.419" y2="128.589" gradientUnits="userSpaceOnUse">
<stop stop-color="#31B7E8"/>
<stop offset="1" stop-color="#000F55"/>
</linearGradient>
<linearGradient id="paint15_linear" x1="189.797" y1="111.473" x2="189.613" y2="128.708" gradientUnits="userSpaceOnUse">
<stop stop-color="#31B7E8"/>
<stop offset="1" stop-color="#000F55"/>
</linearGradient>
<linearGradient id="paint16_linear" x1="202.699" y1="111.61" x2="202.515" y2="128.846" gradientUnits="userSpaceOnUse">
<stop stop-color="#31B7E8"/>
<stop offset="1" stop-color="#000F55"/>
</linearGradient>
<linearGradient id="paint17_linear" x1="213.048" y1="111.721" x2="212.863" y2="128.957" gradientUnits="userSpaceOnUse">
<stop stop-color="#31B7E8"/>
<stop offset="1" stop-color="#000F55"/>
</linearGradient>
<linearGradient id="paint18_linear" x1="22.2475" y1="71.0251" x2="21.4183" y2="104.186" gradientUnits="userSpaceOnUse">
<stop stop-color="#31B7E8"/>
<stop offset="1" stop-color="#000F55"/>
</linearGradient>
<linearGradient id="paint19_linear" x1="58.6438" y1="71.9352" x2="57.8146" y2="105.096" gradientUnits="userSpaceOnUse">
<stop stop-color="#31B7E8"/>
<stop offset="1" stop-color="#000F55"/>
</linearGradient>
<linearGradient id="paint20_linear" x1="100.235" y1="72.9751" x2="99.4054" y2="106.136" gradientUnits="userSpaceOnUse">
<stop stop-color="#31B7E8"/>
<stop offset="1" stop-color="#000F55"/>
</linearGradient>
<linearGradient id="paint21_linear" x1="139.895" y1="73.9668" x2="139.066" y2="107.127" gradientUnits="userSpaceOnUse">
<stop stop-color="#31B7E8"/>
<stop offset="1" stop-color="#000F55"/>
</linearGradient>
<linearGradient id="paint22_linear" x1="168.429" y1="74.6803" x2="167.6" y2="107.841" gradientUnits="userSpaceOnUse">
<stop stop-color="#31B7E8"/>
<stop offset="1" stop-color="#000F55"/>
</linearGradient>
<linearGradient id="paint23_linear" x1="198.569" y1="75.4339" x2="197.74" y2="108.594" gradientUnits="userSpaceOnUse">
<stop stop-color="#31B7E8"/>
<stop offset="1" stop-color="#000F55"/>
</linearGradient>
<linearGradient id="paint24_linear" x1="37.5718" y1="31.6707" x2="189.88" y2="31.6707" gradientUnits="userSpaceOnUse">
<stop offset="0.013369" stop-color="#0071BC"/>
<stop offset="0.4706" stop-color="#31B7E8"/>
<stop offset="1" stop-color="#0071BC"/>
</linearGradient>
<linearGradient id="paint25_linear" x1="77.5993" y1="15.1883" x2="144.601" y2="15.1883" gradientUnits="userSpaceOnUse">
<stop offset="0.013369" stop-color="#0071BC"/>
<stop offset="0.4706" stop-color="#31B7E8"/>
<stop offset="1" stop-color="#0071BC"/>
</linearGradient>
<linearGradient id="paint26_linear" x1="102.219" y1="20.1917" x2="172.762" y2="20.1917" gradientUnits="userSpaceOnUse">
<stop offset="0.013369" stop-color="#0071BC"/>
<stop offset="0.4706" stop-color="#31B7E8"/>
<stop offset="1" stop-color="#0071BC"/>
</linearGradient>
<linearGradient id="paint27_linear" x1="46.4243" y1="34.2245" x2="58.6838" y2="34.2245" gradientUnits="userSpaceOnUse">
<stop offset="0.013369" stop-color="#0071BC"/>
<stop offset="0.4706" stop-color="#31B7E8"/>
<stop offset="1" stop-color="#0071BC"/>
</linearGradient>
<clipPath id="clip0">
<rect width="220" height="119" fill="white"/>
</clipPath>
</defs>
</svg>
